{
	"asset":{
		"generator":"Khronos glTF Blender I/O v4.4.55",
		"version":"2.0"
	},
	"scene":0,
	"scenes":[
		{
			"name":"Scene",
			"nodes":[
				0
			]
		}
	],
	"nodes":[
		{
			"mesh":0,
			"name":"Mesh_0",
			"rotation":[
				0,
				-0.2588191032409668,
				0,
				0.9659258127212524
			]
		}
	],
	"materials":[
		{
			"name":"Material_0",
			"normalTexture":{
				"index":0
			},
			"occlusionTexture":{
				"index":1
			},
			"pbrMetallicRoughness":{
				"baseColorTexture":{
					"index":2
				},
				"metallicFactor":0
			}
		}
	],
	"meshes":[
		{
			"name":"Mesh_0",
			"primitives":[
				{
					"attributes":{
						"POSITION":0,
						"NORMAL":1,
						"TEXCOORD_0":2
					},
					"indices":3,
					"material":0
				}
			]
		}
	],
	"textures":[
		{
			"sampler":0,
			"source":0
		},
		{
			"sampler":0,
			"source":1
		},
		{
			"sampler":0,
			"source":2
		}
	],
	"images":[
		{
			"mimeType":"image/jpeg",
			"name":"cfcdad156fa8456d4e40f42742087f0a",
			"uri":"cfcdad156fa8456d4e40f42742087f0a.jpg"
		},
		{
			"mimeType":"image/jpeg",
			"name":"488569cb94b7576224cf19f5f9174434",
			"uri":"488569cb94b7576224cf19f5f9174434.jpg"
		},
		{
			"mimeType":"image/jpeg",
			"name":"a8d357da6dbb325d089ab36095d5c0f6",
			"uri":"a8d357da6dbb325d089ab36095d5c0f6.jpg"
		}
	],
	"accessors":[
		{
			"bufferView":0,
			"componentType":5126,
			"count":74615,
			"max":[
				0.45674929022789,
				0.9348630905151367,
				0.5392664074897766
			],
			"min":[
				-0.6610676646232605,
				0.0422174334526062,
				-0.40704086422920227
			],
			"type":"VEC3"
		},
		{
			"bufferView":1,
			"componentType":5126,
			"count":74615,
			"type":"VEC3"
		},
		{
			"bufferView":2,
			"componentType":5126,
			"count":74615,
			"type":"VEC2"
		},
		{
			"bufferView":3,
			"componentType":5125,
			"count":74625,
			"type":"SCALAR"
		}
	],
	"bufferViews":[
		{
			"buffer":0,
			"byteLength":895380,
			"byteOffset":0,
			"target":34962
		},
		{
			"buffer":0,
			"byteLength":895380,
			"byteOffset":895380,
			"target":34962
		},
		{
			"buffer":0,
			"byteLength":596920,
			"byteOffset":1790760,
			"target":34962
		},
		{
			"buffer":0,
			"byteLength":298500,
			"byteOffset":2387680,
			"target":34963
		}
	],
	"samplers":[
		{
			"magFilter":9729,
			"minFilter":9987
		}
	],
	"buffers":[
		{
			"byteLength":2686180,
			"uri":"test.bin"
		}
	]
}
